<svg xmlns="http://www.w3.org/2000/svg" version="1.1" xmlns:xlink="http://www.w3.org/1999/xlink" viewBox="0 0 200 200"><rect width="200" height="200" fill="url('#gradient')"></rect><defs><linearGradient id="gradient" gradientTransform="rotate(116 0.5 0.5)"><stop offset="0%" stop-color="#00123b"></stop><stop offset="100%" stop-color="#333cb9"></stop></linearGradient></defs><g><g fill="#ffffff" transform="matrix(7.616922361692236,0,0,7.616922361692236,11.831974121594314,156.70927718116872)" stroke="#030303" stroke-width="0.6"><path d="M1.07-14.22L5.58-14.22L8.75-4.33L11.91-14.22L16.43-14.22L16.43 0L12.99 0L12.99-3.32L13.32-10.12L9.88 0L7.62 0L4.17-10.13L4.50-3.32L4.50 0L1.07 0L1.07-14.22ZM21.92-10.57L21.92 0L18.62 0L18.62-10.57L21.92-10.57ZM18.43-13.29L18.43-13.29Q18.43-13.99 18.94-14.44Q19.44-14.89 20.25-14.89Q21.06-14.89 21.57-14.44Q22.08-13.99 22.08-13.29Q22.08-12.59 21.57-12.14Q21.06-11.69 20.25-11.69Q19.44-11.69 18.94-12.14Q18.43-12.59 18.43-13.29Z"></path></g></g></svg>